<?xml version="1.0" standalone="no"?>
<!DOCTYPE svg PUBLIC "-//W3C//DTD SVG 20010904//EN"
 "http://www.w3.org/TR/2001/REC-SVG-20010904/DTD/svg10.dtd">
<svg version="1.0" xmlns="http://www.w3.org/2000/svg"
 width="338.000000pt" height="347.000000pt" viewBox="0 0 338.000000 347.000000"
 preserveAspectRatio="xMidYMid meet">

<g transform="translate(0.000000,347.000000) scale(0.100000,-0.100000)"
fill="#000000" stroke="none">
<path d="M0 1735 l0 -1735 1690 0 1690 0 0 1735 0 1735 -1690 0 -1690 0 0
-1735z m1020 603 l1 -463 22 29 c12 17 103 147 202 291 99 143 234 338 299
433 l119 172 205 0 c172 0 203 -2 199 -14 -5 -13 -41 -66 -207 -306 -30 -44
-79 -114 -108 -157 -29 -43 -134 -196 -233 -341 -143 -209 -178 -266 -170
-280 5 -9 86 -125 180 -257 330 -467 531 -756 531 -767 0 -4 -91 -8 -203 -8
l-203 0 -31 43 c-17 23 -155 218 -307 432 -153 215 -281 392 -287 393 -5 2 -9
-163 -9 -432 l0 -436 -175 0 -175 0 -2 1043 c-2 573 -2 1052 0 1065 3 22 5 22
178 22 l174 0 0 -462z m1767 450 c-4 -11 -184 -281 -624 -937 -46 -68 -83
-127 -83 -131 0 -3 32 -53 72 -111 175 -255 628 -928 628 -933 0 -4 -92 -6
-204 -6 l-203 0 -135 197 c-74 109 -188 277 -253 373 -65 96 -163 239 -217
317 -54 78 -101 148 -104 156 -5 14 61 113 541 815 l186 272 201 0 c156 0 199
-3 195 -12z"/>
</g>
</svg>
